<svg width="387" height="126" viewBox="0 0 387 126" fill="none" xmlns="http://www.w3.org/2000/svg">
<path d="M50.25 16.625C50.5833 17.1667 50.75 17.6042 50.75 17.9375C50.75 18.3125 50.6458 18.6667 50.4375 19C50.2292 19.3333 49.9583 19.6667 49.625 20C49.3333 20.2917 49.0208 20.5833 48.6875 20.875C48.3542 21.1667 48.0833 21.4792 47.875 21.8125C47.5 22.3958 47.1667 22.9792 46.875 23.5625C46.625 24.1042 46.3333 24.6042 46 25.0625C45.7083 25.5208 45.3542 25.8958 44.9375 26.1875C44.5625 26.4792 44.0625 26.625 43.4375 26.625C43.2292 26.625 42.9792 26.5833 42.6875 26.5C42.4375 26.4167 42.1875 26.375 41.9375 26.375C41.4792 26.375 41.0625 26.5208 40.6875 26.8125C40.3542 27.0625 39.9583 27.25 39.5 27.375C38.9167 27.5417 38.3958 27.6875 37.9375 27.8125C37.5208 27.9375 36.9583 28.1042 36.25 28.3125H35.5C35.0417 28.3125 34.5833 28.4375 34.125 28.6875C33.7083 28.9375 33.0208 29.2917 32.0625 29.75C31.5625 29.9167 30.8958 29.9792 30.0625 29.9375C29.2708 29.8958 28.375 29.9792 27.375 30.1875C27.25 30.2292 27.0833 30.3958 26.875 30.6875C26.6667 30.9375 26.5208 31.0833 26.4375 31.125C25.8542 31.2917 25.1875 31.4375 24.4375 31.5625C23.6875 31.6458 22.9792 31.8125 22.3125 32.0625C21.6875 32.2708 21.1458 32.6042 20.6875 33.0625C20.2708 33.5208 20.0625 34.1875 20.0625 35.0625C20.0625 35.7292 20.2292 36.5417 20.5625 37.5C20.8958 38.4167 21.25 39.3333 21.625 40.25C22.0417 41.125 22.4375 41.8958 22.8125 42.5625C23.2292 43.2292 23.5 43.625 23.625 43.75C24 44.1667 24.3333 44.625 24.625 45.125C24.9167 45.5833 25.2083 46.1042 25.5 46.6875C25.8333 47.2292 26.1667 47.8125 26.5 48.4375C26.875 49.0208 27.3333 49.625 27.875 50.25C28.2083 50.6667 28.5833 51.0625 29 51.4375C29.4167 51.8125 29.8125 52.1667 30.1875 52.5C30.5625 52.8333 30.875 53.1667 31.125 53.5C31.4167 53.8333 31.5625 54.1458 31.5625 54.4375C31.7292 54.9375 32.2708 55.5625 33.1875 56.3125C34.1042 57.0625 34.9583 58 35.75 59.125C35.8333 59.25 36 59.4375 36.25 59.6875C36.5 59.8958 36.75 60.125 37 60.375C37.2917 60.625 37.5417 60.8958 37.75 61.1875C38 61.4375 38.125 61.6875 38.125 61.9375C38.125 62.2708 38.2917 62.5 38.625 62.625C38.9583 62.75 39.25 62.9792 39.5 63.3125C39.7083 63.5625 39.8542 63.8542 39.9375 64.1875C40.0208 64.5208 40.1875 64.8542 40.4375 65.1875C40.9375 65.9375 41.5208 66.75 42.1875 67.625C42.8958 68.4583 43.25 69.5 43.25 70.75C43.25 71.5417 43.0833 72.3333 42.75 73.125C42.6667 73.3333 42.5 73.4583 42.25 73.5C42.0417 73.5417 41.9167 73.7292 41.875 74.0625C41.7083 74.6458 41.5417 75.2083 41.375 75.75C41.2083 76.25 40.8958 76.7708 40.4375 77.3125C39.9792 77.8542 39.4583 78.3542 38.875 78.8125C38.2917 79.2708 37.7083 79.8542 37.125 80.5625C36.7083 81.1042 36.2708 81.5833 35.8125 82C35.3542 82.4167 34.8333 82.8542 34.25 83.3125C33.7083 83.7708 33.0625 84.2917 32.3125 84.875C31.5625 85.4583 30.6875 86.2083 29.6875 87.125C29.3542 87.4583 28.9167 87.8542 28.375 88.3125C27.8333 88.7292 27.0208 89.1042 25.9375 89.4375C25.3542 89.6458 24.5625 89.8125 23.5625 89.9375C22.5625 90.0625 21.4375 90.1875 20.1875 90.3125C18.9375 90.3958 17.6042 90.4792 16.1875 90.5625C14.7708 90.6458 13.3542 90.7292 11.9375 90.8125C10.8958 90.9375 9.83333 91.0625 8.75 91.1875C7.66667 91.2708 6.5625 91.3125 5.4375 91.3125C3.6875 91.3125 2.33333 91.2083 1.375 91C0.458333 90.75 0 90.1458 0 89.1875C0 88.7708 0.0833333 88.3958 0.25 88.0625C0.458333 87.6875 0.708333 87.3542 1 87.0625C1.29167 86.7292 1.58333 86.4167 1.875 86.125C2.16667 85.8333 2.41667 85.5417 2.625 85.25C3.04167 84.625 3.41667 84.0833 3.75 83.625C4.08333 83.125 4.41667 82.7083 4.75 82.375C5.125 82.0417 5.5 81.7917 5.875 81.625C6.25 81.4583 6.70833 81.375 7.25 81.375C7.83333 81.375 8.45833 81.4375 9.125 81.5625C9.79167 81.6458 10.4375 81.7708 11.0625 81.9375C11.7292 82.0625 12.3333 82.1875 12.875 82.3125C13.4167 82.3958 13.8542 82.4375 14.1875 82.4375C14.7292 82.4375 15.25 82.375 15.75 82.25C16.2917 82.0833 16.8958 82 17.5625 82C18.2708 82 19.0417 82.0833 19.875 82.25C20.75 82.375 21.5417 82.4375 22.25 82.4375C23.2917 82.4375 24.5 82.375 25.875 82.25C27.25 82.0833 28.5625 81.8333 29.8125 81.5C31.0625 81.1667 32.1042 80.75 32.9375 80.25C33.8125 79.7083 34.25 79.0833 34.25 78.375C34.25 78 34.1042 77.4792 33.8125 76.8125C33.5208 76.1458 33.1458 75.4167 32.6875 74.625C32.2708 73.8333 31.7917 73.0208 31.25 72.1875C30.7083 71.3542 30.1875 70.5625 29.6875 69.8125C29.4375 69.4792 29.125 69.1875 28.75 68.9375C28.375 68.6458 28.0833 68.3333 27.875 68C27.625 67.625 27.4583 67.2292 27.375 66.8125C27.2917 66.3542 27.125 65.9583 26.875 65.625C26.4167 65 25.8542 64.4375 25.1875 63.9375C24.5625 63.3958 24.0417 62.875 23.625 62.375C22.9167 61.5417 22.25 60.5833 21.625 59.5C21 58.4167 20.2708 57.3542 19.4375 56.3125C19.1875 56.0208 19 55.8125 18.875 55.6875C18.75 55.5625 18.4792 55.1458 18.0625 54.4375C17.6042 53.8542 17.0417 53.3125 16.375 52.8125C15.75 52.3125 15.2083 51.7708 14.75 51.1875C14.5833 50.9792 14.5 50.75 14.5 50.5C14.5417 50.2083 14.4792 49.9792 14.3125 49.8125C13.8125 49.3125 13.25 48.7917 12.625 48.25C12 47.6667 11.6875 46.9167 11.6875 46C11.6875 45.375 11.5 44.5833 11.125 43.625C10.7917 42.6667 10.625 41.5833 10.625 40.375C10.625 39.5417 10.8125 38.875 11.1875 38.375C11.5625 37.875 11.8125 37.3333 11.9375 36.75C12.1042 36.4167 12.1875 36.1042 12.1875 35.8125C12.1875 35.4792 12.2708 35.1458 12.4375 34.8125C12.5208 34.7292 12.6875 34.6667 12.9375 34.625C13.1875 34.5417 13.3333 34.4583 13.375 34.375C13.5417 34 13.7083 33.7083 13.875 33.5C14.0833 33.25 14.3333 33 14.625 32.75C14.9167 32.4583 15.2917 32.125 15.75 31.75C16.2083 31.375 16.8125 30.8542 17.5625 30.1875C17.6875 30.1042 17.7708 29.9583 17.8125 29.75C17.8542 29.5 17.9375 29.3333 18.0625 29.25C18.3542 29 18.6667 28.8333 19 28.75C19.3333 28.6667 19.625 28.5208 19.875 28.3125C21 27.5625 21.9792 26.9167 22.8125 26.375C23.6875 25.8333 24.5 25.3542 25.25 24.9375C26 24.4792 26.75 24.0833 27.5 23.75C28.25 23.4167 29.125 23.0833 30.125 22.75L38.5625 19.9375C39.0208 19.4792 39.625 19.2292 40.375 19.1875C41.125 19.1042 41.9167 18.8958 42.75 18.5625C43.5833 18.1042 44.6458 17.7292 45.9375 17.4375C47.2292 17.1042 48.6667 16.8333 50.25 16.625ZM99.4375 75.625C99.8958 76.0833 100.125 76.5 100.125 76.875C100.125 77.125 100.021 77.375 99.8125 77.625C99.6458 77.8333 99.4375 78.0417 99.1875 78.25C98.9375 78.4167 98.6875 78.6042 98.4375 78.8125C98.2292 78.9792 98.0833 79.1667 98 79.375C97.625 80.2917 96.9792 81.3125 96.0625 82.4375C95.1875 83.5208 94.2917 84.6667 93.375 85.875C92.875 86.5417 92.2917 87.375 91.625 88.375C91 89.3333 90.3333 90.2292 89.625 91.0625C89.5417 91.1458 89.375 91.2083 89.125 91.25C88.875 91.3333 88.7292 91.4167 88.6875 91.5C88.3542 92.3333 87.9167 93.125 87.375 93.875C86.875 94.625 86.125 95 85.125 95C83.9167 95 83 94.7083 82.375 94.125C81.75 93.5833 81.3125 92.9375 81.0625 92.1875C80.8125 91.4375 80.6667 90.6667 80.625 89.875C80.625 89.0833 80.625 88.4583 80.625 88C80.625 86.5 80.75 84.8542 81 83.0625C81.25 81.2708 81.5208 79.5 81.8125 77.75C82.1458 76 82.4375 74.3333 82.6875 72.75C82.9375 71.125 83.0625 69.75 83.0625 68.625H82.8125C82.4792 68.625 82.0417 69 81.5 69.75C80.9583 70.4583 80.3333 71.3542 79.625 72.4375C78.9583 73.5208 78.2292 74.6875 77.4375 75.9375C76.6875 77.1875 75.9375 78.3333 75.1875 79.375C74.7708 79.9167 74.3125 80.4583 73.8125 81C73.3542 81.5417 72.8958 82.0208 72.4375 82.4375C72.0208 82.8542 71.6667 83.1875 71.375 83.4375C71.0833 83.6875 70.9375 83.7917 70.9375 83.75C70.9375 83.8333 70.9375 83.9375 70.9375 84.0625C70.9792 84.1875 71 84.2917 71 84.375C71 84.6667 70.8125 85 70.4375 85.375C70.1042 85.7083 69.7292 86.0417 69.3125 86.375C68.8958 86.6667 68.5 86.9167 68.125 87.125C67.7917 87.3333 67.625 87.4583 67.625 87.5C67.625 87.5833 67.625 87.6875 67.625 87.8125C67.6667 87.9375 67.6875 88.0417 67.6875 88.125C67.6875 88.2917 67.5417 88.3958 67.25 88.4375C67 88.4792 66.8333 88.5625 66.75 88.6875C66.625 89.0208 66.5 89.4167 66.375 89.875C66.2917 90.2917 65.9583 90.5208 65.375 90.5625C65.0833 90.5625 64.7708 90.75 64.4375 91.125C64.1042 91.5 63.7708 91.8958 63.4375 92.3125C63.1042 92.7708 62.7708 93.1875 62.4375 93.5625C62.1458 93.9792 61.875 94.2292 61.625 94.3125C60.7917 94.5625 60.1458 94.6875 59.6875 94.6875C59.1042 94.6875 58.5417 94.4583 58 94C57.5 93.5417 57.0625 93.0208 56.6875 92.4375C56.3125 91.8958 56 91.3542 55.75 90.8125C55.5417 90.2708 55.4375 89.8958 55.4375 89.6875C55.4375 88.5625 55.4792 87.3333 55.5625 86C55.6458 84.6667 55.75 83.3542 55.875 82.0625C56.0417 80.7292 56.25 79.5 56.5 78.375C56.75 77.25 57.0625 76.3333 57.4375 75.625C57.6458 75.1667 57.75 74.5208 57.75 73.6875C57.75 73.3958 57.7292 73.1042 57.6875 72.8125C57.6875 72.4792 57.6875 72.1458 57.6875 71.8125C57.6875 71.3125 57.7292 70.8333 57.8125 70.375C57.9375 69.875 58.0625 69.3125 58.1875 68.6875C58.3542 68.0625 58.5208 67.3333 58.6875 66.5C58.8958 65.6667 59.0833 64.6667 59.25 63.5C59.3333 62.7083 59.3958 61.9167 59.4375 61.125C59.5208 60.3333 59.625 59.5625 59.75 58.8125C59.9583 57.6458 60.1875 56.3958 60.4375 55.0625C60.7292 53.7292 60.875 52.3333 60.875 50.875C60.875 50.7083 60.875 50.4792 60.875 50.1875C60.875 49.8958 60.8542 49.625 60.8125 49.375C60.7708 49.0833 60.7083 48.8333 60.625 48.625C60.5833 48.4167 60.5 48.3125 60.375 48.3125C60.0417 48.3125 59.7083 48.5 59.375 48.875C59.0417 49.25 58.7083 49.6875 58.375 50.1875C58.0417 50.6875 57.7083 51.1875 57.375 51.6875C57.0833 52.1875 56.7917 52.5625 56.5 52.8125C56.0833 53.1875 55.5417 53.5 54.875 53.75C54.25 54 53.7083 54.2917 53.25 54.625C53.0833 54.75 52.9583 54.9375 52.875 55.1875C52.7917 55.3958 52.6875 55.6042 52.5625 55.8125C52.4375 56.0208 52.25 56.2083 52 56.375C51.7917 56.5417 51.4792 56.625 51.0625 56.625C50.8958 56.625 50.7292 56.6042 50.5625 56.5625C50.4375 56.4792 50.375 56.2708 50.375 55.9375C50.375 55.1458 50.6667 54.4792 51.25 53.9375C51.875 53.3542 52.375 52.8125 52.75 52.3125C52.9167 52.1042 52.9792 51.875 52.9375 51.625C52.9375 51.3333 53.0417 51.0833 53.25 50.875C53.4583 50.6667 53.7917 50.4167 54.25 50.125C54.7083 49.8333 55.1458 49.4792 55.5625 49.0625C55.7292 48.8542 55.8125 48.625 55.8125 48.375C55.8125 48.0833 55.875 47.8333 56 47.625C56.25 47.375 56.6667 47.1042 57.25 46.8125C57.875 46.5208 58.3958 46.1875 58.8125 45.8125C58.9375 45.6875 59.1042 45.4792 59.3125 45.1875C59.5208 44.8542 59.75 44.5417 60 44.25C60.25 43.9167 60.5 43.625 60.75 43.375C61.0417 43.125 61.3333 43 61.625 43C61.8333 43 62.0625 42.8333 62.3125 42.5C62.6042 42.125 62.8958 41.7083 63.1875 41.25C63.4792 40.75 63.7708 40.2708 64.0625 39.8125C64.3542 39.3542 64.625 39.0208 64.875 38.8125C65.1667 38.5625 65.5625 38.375 66.0625 38.25C66.5625 38.0833 67.1042 38 67.6875 38C68.3542 38 68.9375 38.125 69.4375 38.375C69.9375 38.5833 70.1875 39.0208 70.1875 39.6875C70.1875 39.9792 70.1458 40.3542 70.0625 40.8125C70.0208 41.2708 69.9583 41.7292 69.875 42.1875C69.7917 42.6458 69.7083 43.1042 69.625 43.5625C69.5833 43.9792 69.5625 44.2917 69.5625 44.5C69.5625 44.875 69.6042 45.1667 69.6875 45.375C69.8125 45.5833 69.875 45.8333 69.875 46.125C69.875 46.2917 69.75 46.6458 69.5 47.1875C69.25 47.7292 68.9792 48.3958 68.6875 49.1875C68.4375 49.9375 68.1875 50.7917 67.9375 51.75C67.6875 52.6667 67.5625 53.5833 67.5625 54.5C67.5625 55.125 67.5833 55.7083 67.625 56.25C67.6667 56.7917 67.6875 57.3333 67.6875 57.875C67.6875 58.875 67.5417 59.8125 67.25 60.6875C67.2083 60.7708 67.1042 60.8542 66.9375 60.9375C66.8125 60.9792 66.75 61.1042 66.75 61.3125C66.75 61.4792 66.7708 61.7292 66.8125 62.0625C66.8542 62.3542 66.875 62.6875 66.875 63.0625C66.875 63.5208 66.8125 63.8333 66.6875 64C66.6042 64.125 66.4792 64.2292 66.3125 64.3125C66.1875 64.3542 66.0625 64.4167 65.9375 64.5C65.8542 64.5833 65.8125 64.7917 65.8125 65.125C65.8125 65.5 65.875 65.875 66 66.25C66.1667 66.5833 66.25 67.0833 66.25 67.75C66.25 68.3333 66.1458 69.0208 65.9375 69.8125C65.7292 70.6042 65.5 71.5208 65.25 72.5625C65 73.6042 64.7708 74.7708 64.5625 76.0625C64.3542 77.3125 64.25 78.6875 64.25 80.1875C64.25 81.4792 64.2917 82.5417 64.375 83.375C64.5 84.1667 64.7292 84.5625 65.0625 84.5625C65.6875 84.5625 66.4167 84.2083 67.25 83.5C68.125 82.75 69.0417 81.7917 70 80.625C70.9583 79.4167 71.9167 78.1042 72.875 76.6875C73.875 75.2292 74.7917 73.7917 75.625 72.375C76.5 70.9167 77.25 69.5833 77.875 68.375C78.5417 67.125 79.0417 66.125 79.375 65.375C80.3333 63.0833 81.2292 60.8333 82.0625 58.625C82.9375 56.4167 83.9167 54 85 51.375C85.0833 51.0417 85.125 50.7083 85.125 50.375C85.125 50 85.125 49.625 85.125 49.25V47.8125C85.125 46.8958 85.25 46.2083 85.5 45.75C85.7917 45.2917 86.1458 44.9583 86.5625 44.75C87.0208 44.5 87.5208 44.3125 88.0625 44.1875C88.6042 44.0208 89.125 43.7708 89.625 43.4375C90.2083 43.0625 90.7708 42.625 91.3125 42.125C91.8542 41.625 92.375 41.1458 92.875 40.6875C93.4167 40.2292 93.9375 39.8333 94.4375 39.5C94.9792 39.125 95.5625 38.8958 96.1875 38.8125C96.1875 39.0625 96.125 39.2917 96 39.5C95.875 39.6667 95.7292 39.875 95.5625 40.125C95.3958 40.3333 95.2292 40.5833 95.0625 40.875C94.8958 41.1667 94.7917 41.5625 94.75 42.0625C94.7083 42.4375 94.6042 42.9792 94.4375 43.6875C94.3125 44.3542 94.1042 45.0625 93.8125 45.8125C93.7708 45.8958 93.6875 45.9375 93.5625 45.9375C93.4375 45.8958 93.375 46 93.375 46.25C93.3333 46.75 93.2708 47.6042 93.1875 48.8125C93.1042 50.0208 93 51.1875 92.875 52.3125C92.7917 53.1042 92.5417 53.9375 92.125 54.8125C91.7083 55.6458 91.4792 56.5417 91.4375 57.5C91.4375 57.7083 91.4583 57.8333 91.5 57.875C91.5833 57.9167 91.625 58.0208 91.625 58.1875C91.625 58.6875 91.4375 59.1875 91.0625 59.6875C90.7292 60.1458 90.5625 60.5417 90.5625 60.875C90.5625 61.4167 90.625 62 90.75 62.625C90.9167 63.25 91 63.8542 91 64.4375C91 65.1458 90.875 65.8333 90.625 66.5C90.375 67.125 90.1875 67.8333 90.0625 68.625C89.8958 69.4167 89.8125 70.2083 89.8125 71C89.8125 71.7917 89.75 72.5625 89.625 73.3125C89.375 74.8542 89.0833 76.3542 88.75 77.8125C88.4167 79.2292 88.25 80.4167 88.25 81.375C88.25 81.875 88.3125 82.3542 88.4375 82.8125C88.5625 83.2292 88.6875 83.6042 88.8125 83.9375C88.9792 84.2708 89.1042 84.5417 89.1875 84.75C89.3125 84.9583 89.375 85.0625 89.375 85.0625C89.6667 85.0625 90.0417 84.9583 90.5 84.75C90.9583 84.5 91.3958 84.2292 91.8125 83.9375C92.2292 83.6458 92.5833 83.3542 92.875 83.0625C93.2083 82.7708 93.375 82.5625 93.375 82.4375C93.375 82.3542 93.3542 82.2708 93.3125 82.1875C93.3125 82.0625 93.3125 81.9583 93.3125 81.875C93.3125 81.625 93.4792 81.4792 93.8125 81.4375C94.1458 81.3958 94.3125 81.25 94.3125 81C94.3125 80.9167 94.2917 80.8125 94.25 80.6875C94.25 80.5625 94.25 80.4583 94.25 80.375C94.25 80.2083 94.3542 79.9792 94.5625 79.6875C94.8125 79.3958 95.0625 79.1042 95.3125 78.8125C95.6042 78.4792 95.875 78.2083 96.125 78C96.375 77.75 96.5417 77.5833 96.625 77.5C96.7083 77.4167 96.7708 77.2708 96.8125 77.0625C96.8958 76.8542 97 76.6458 97.125 76.4375C97.2917 76.1875 97.5208 75.9792 97.8125 75.8125C98.1042 75.6458 98.5 75.5625 99 75.5625C99.0833 75.5625 99.1458 75.5833 99.1875 75.625C99.2708 75.625 99.3542 75.625 99.4375 75.625ZM121.812 38.8125C122.104 40.1042 122.25 41.5625 122.25 43.1875C122.25 45.2292 122.083 47.3333 121.75 49.5C121.458 51.625 121.167 53.6458 120.875 55.5625C120.75 56.4792 120.667 57.4167 120.625 58.375C120.625 59.3333 120.542 60.2708 120.375 61.1875C120.292 61.8542 120.146 62.4792 119.938 63.0625C119.771 63.6458 119.625 64.2708 119.5 64.9375C119.333 65.6458 119.229 66.3542 119.188 67.0625C119.188 67.7292 119.125 68.4167 119 69.125C118.792 70.25 118.562 71.5 118.312 72.875C118.062 74.25 117.833 75.8125 117.625 77.5625C117.417 79.1458 117.25 80.7917 117.125 82.5C117.042 84.2083 116.896 85.9792 116.688 87.8125C116.604 88.5625 116.542 89.375 116.5 90.25C116.5 91.0833 116.396 91.8333 116.188 92.5C116.146 92.6667 116 92.8333 115.75 93C115.5 93.1667 115.354 93.2917 115.312 93.375C115.021 93.875 114.771 94.5208 114.562 95.3125C114.396 96.1042 114.167 96.8542 113.875 97.5625C113.542 98.3958 113.208 99.1458 112.875 99.8125C112.583 100.479 112.25 101.104 111.875 101.688C111.542 102.312 111.146 102.938 110.688 103.562C110.271 104.188 109.771 104.854 109.188 105.562C109.062 105.771 109 106 109 106.25C109 106.5 108.917 106.729 108.75 106.938C108.5 107.271 108.188 107.562 107.812 107.812C107.438 108.104 107.125 108.438 106.875 108.812C106.667 109.104 106.5 109.5 106.375 110C106.292 110.5 106.146 110.875 105.938 111.125C105.646 111.458 105.208 111.812 104.625 112.188C104.083 112.562 103.583 113 103.125 113.5C102.75 113.917 102.438 114.375 102.188 114.875C101.979 115.417 101.688 115.896 101.312 116.312C100.896 116.771 100.417 117.146 99.875 117.438C99.3333 117.729 98.875 118.104 98.5 118.562C98.0417 119.062 97.7083 119.562 97.5 120.062C97.25 120.604 96.9583 121.042 96.625 121.375C96.3333 121.625 95.8958 121.958 95.3125 122.375C94.7292 122.833 94.1458 123.271 93.5625 123.688C92.9792 124.104 92.4792 124.438 92.0625 124.688C91.6042 124.979 91.375 125.125 91.375 125.125C91.1667 125.125 90.8958 125.042 90.5625 124.875C90.1875 124.75 89.7083 124.688 89.125 124.688C88.7917 124.688 88.5417 124.75 88.375 124.875C88.1667 125.042 87.8958 125.125 87.5625 125.125C87.3542 125.125 86.9167 125 86.25 124.75C85.5833 124.542 84.8333 124.354 84 124.188C83.2917 124.062 82.4792 123.917 81.5625 123.75C80.6042 123.625 79.7083 123.438 78.875 123.188C78 122.938 77.2708 122.625 76.6875 122.25C76.0625 121.875 75.75 121.375 75.75 120.75C75.75 120.375 75.8125 120.083 75.9375 119.875C76.0625 119.708 76.2083 119.583 76.375 119.5C76.5417 119.417 76.6875 119.333 76.8125 119.25C76.9375 119.167 77 119.042 77 118.875C77 118.792 77 118.688 77 118.562C76.9583 118.479 76.9375 118.396 76.9375 118.312C76.9375 118.062 77.1042 117.917 77.4375 117.875C77.7708 117.875 77.9375 117.75 77.9375 117.5C77.9375 117.417 77.9375 117.312 77.9375 117.188C77.8958 117.104 77.875 117.021 77.875 116.938C77.875 116.688 78.0417 116.542 78.375 116.5C78.7083 116.5 78.875 116.375 78.875 116.125C78.875 116.042 78.875 115.938 78.875 115.812C78.8333 115.688 78.8125 115.583 78.8125 115.5C78.8125 115.25 79 114.979 79.375 114.688C79.75 114.396 80.1875 114.083 80.6875 113.75C81.1458 113.458 81.625 113.167 82.125 112.875C82.5833 112.583 82.9167 112.312 83.125 112.062C83.4583 111.688 83.8958 111.042 84.4375 110.125C84.9375 109.25 85.5208 108.333 86.1875 107.375C86.8542 106.458 87.5625 105.625 88.3125 104.875C89.0625 104.125 89.8125 103.729 90.5625 103.688C90.8542 104.104 91 104.479 91 104.812C91 105.146 90.9375 105.5 90.8125 105.875C90.6458 106.25 90.4792 106.583 90.3125 106.875C90.1042 107.25 89.875 107.583 89.625 107.875C89.25 108.25 89 108.562 88.875 108.812C88.7083 109.104 88.4792 109.417 88.1875 109.75C87.8958 110.125 87.5625 110.5 87.1875 110.875C86.7708 111.25 86.3958 111.625 86.0625 112C85.7292 112.375 85.4375 112.792 85.1875 113.25C84.9375 113.708 84.8125 114.208 84.8125 114.75C84.8125 115.542 85.0417 116.188 85.5 116.688C85.9583 117.229 86.5208 117.667 87.1875 118C87.8125 118.333 88.5 118.562 89.25 118.688C89.9583 118.854 90.5833 118.938 91.125 118.938C92.2083 118.938 93.1458 118.562 93.9375 117.812C94.7292 117.104 95.7917 116.125 97.125 114.875C97.375 114.583 97.6875 114.396 98.0625 114.312C98.3958 114.271 98.6875 114.146 98.9375 113.938C99.1458 113.729 99.2917 113.5 99.375 113.25C99.5 113 99.6667 112.771 99.875 112.562C100.042 112.396 100.25 112.188 100.5 111.938C100.792 111.729 101.062 111.5 101.312 111.25C101.562 111.042 101.771 110.812 101.938 110.562C102.146 110.354 102.25 110.167 102.25 110C102.25 109.917 102.229 109.812 102.188 109.688C102.146 109.562 102.125 109.458 102.125 109.375C102.125 109.333 102.271 109.062 102.562 108.562C102.854 108.104 103.188 107.604 103.562 107.062C103.938 106.521 104.271 106.042 104.562 105.625C104.854 105.208 105 105.021 105 105.062C105.042 104.729 105.25 104.5 105.625 104.375C106 104.25 106.25 104.021 106.375 103.688C106.542 103.396 106.667 102.875 106.75 102.125C106.875 101.375 106.979 100.5 107.062 99.5C107.188 98.5417 107.292 97.4792 107.375 96.3125C107.458 95.1875 107.604 94.0625 107.812 92.9375C107.896 92.3542 108.062 91.8125 108.312 91.3125C108.604 90.8125 108.75 90.2917 108.75 89.75C108.75 89.5833 108.729 89.4167 108.688 89.25C108.688 89.0833 108.688 88.8958 108.688 88.6875C108.688 88.2292 108.771 87.9375 108.938 87.8125C109.104 87.6458 109.188 87.4792 109.188 87.3125C109.938 84.0208 110.417 80.875 110.625 77.875C110.875 74.8333 111.188 71.7708 111.562 68.6875C111.771 67.1042 112.021 65.6042 112.312 64.1875C112.646 62.7292 112.854 61.2708 112.938 59.8125C113.021 58.3958 113.083 56.9792 113.125 55.5625C113.208 54.1458 113.292 52.75 113.375 51.375C113.417 51.0833 113.458 50.7708 113.5 50.4375C113.583 50.1042 113.625 49.7708 113.625 49.4375C113.625 48.7292 113.354 48.375 112.812 48.375C112.396 48.375 111.938 48.5833 111.438 49C110.979 49.4167 110.479 49.8958 109.938 50.4375C109.438 50.9375 108.896 51.3958 108.312 51.8125C107.771 52.2292 107.208 52.4375 106.625 52.4375C106.083 52.4375 105.812 52.2083 105.812 51.75C105.812 51.2917 106.062 50.9167 106.562 50.625C107.062 50.3333 107.479 49.9792 107.812 49.5625C108.146 49.1458 108.438 48.6875 108.688 48.1875C108.938 47.6458 109.271 47.1667 109.688 46.75C110.229 46.25 110.896 45.8333 111.688 45.5C112.479 45.125 113.208 44.6042 113.875 43.9375C114.292 43.5208 114.688 43.0208 115.062 42.4375C115.479 41.8125 115.938 41.2292 116.438 40.6875C116.979 40.1458 117.604 39.6875 118.312 39.3125C119.021 38.9375 119.938 38.75 121.062 38.75C121.188 38.75 121.312 38.7708 121.438 38.8125C121.562 38.8125 121.688 38.8125 121.812 38.8125ZM130.188 12.6875C130.479 13.1042 130.625 13.4375 130.625 13.6875C130.625 13.7708 130.562 14 130.438 14.375C130.312 14.75 130.146 15.1875 129.938 15.6875C129.771 16.1875 129.583 16.6875 129.375 17.1875C129.167 17.6458 128.979 18.0208 128.812 18.3125C128.729 18.4375 128.521 18.625 128.188 18.875C127.896 19.125 127.562 19.4167 127.188 19.75C126.854 20.0417 126.521 20.3958 126.188 20.8125C125.896 21.1875 125.688 21.5833 125.562 22C125.562 21.9583 125.375 22.2292 125 22.8125C124.667 23.3958 124.271 24.0417 123.812 24.75C123.396 25.4583 123 26.125 122.625 26.75C122.292 27.3333 122.125 27.625 122.125 27.625C122 27.625 121.875 27.625 121.75 27.625C121.667 27.5833 121.583 27.5625 121.5 27.5625C121.5 27.5625 121.438 27.6458 121.312 27.8125C121.229 27.9792 121.104 28.1667 120.938 28.375C120.812 28.5417 120.667 28.7083 120.5 28.875C120.333 29 120.188 29.0625 120.062 29.0625C119.229 29.0625 118.604 28.7917 118.188 28.25C117.771 27.6667 117.562 26.9583 117.562 26.125C117.562 25.7083 117.625 25.3333 117.75 25C117.917 24.625 118.083 24.3125 118.25 24.0625C118.458 23.7708 118.625 23.5417 118.75 23.375C118.917 23.1667 119 23.0208 119 22.9375C119.208 22.3542 119.292 21.7083 119.25 21C119.25 20.2917 119.333 19.6875 119.5 19.1875C119.583 19.0208 119.729 18.875 119.938 18.75C120.188 18.5833 120.333 18.4375 120.375 18.3125C120.417 18.1875 120.479 17.9167 120.562 17.5C120.646 17.0833 120.729 16.6458 120.812 16.1875C120.938 15.6875 121.042 15.25 121.125 14.875C121.208 14.4583 121.292 14.1875 121.375 14.0625C121.792 13.4792 122.312 13.0833 122.938 12.875C123.604 12.6667 124.333 12.4375 125.125 12.1875C125.125 12.1458 125.146 12.0625 125.188 11.9375C125.271 11.7708 125.354 11.6875 125.438 11.6875C125.479 11.6875 125.562 11.7292 125.688 11.8125C125.812 11.8958 125.979 11.9375 126.188 11.9375C126.438 11.9375 126.729 11.9167 127.062 11.875C127.438 11.8333 127.792 11.8125 128.125 11.8125C128.542 11.8125 128.917 11.875 129.25 12C129.625 12.125 129.938 12.3542 130.188 12.6875ZM153.188 75.6875C153.354 76.0625 153.438 76.4583 153.438 76.875C153.438 77.2917 153.333 77.6667 153.125 78C152.958 78.2917 152.729 78.5833 152.438 78.875C152.188 79.125 151.896 79.375 151.562 79.625C151.271 79.8333 151.021 80.0625 150.812 80.3125C150.729 80.4792 150.667 80.7292 150.625 81.0625C150.625 81.3542 150.542 81.5833 150.375 81.75C149.875 82.2917 149.25 82.75 148.5 83.125C147.792 83.5 147.167 83.9792 146.625 84.5625C146.292 84.9375 146.042 85.3125 145.875 85.6875C145.708 86.0208 145.333 86.4167 144.75 86.875C144.292 87.2083 143.854 87.6667 143.438 88.25C143.021 88.8333 142.562 89.4167 142.062 90C141.562 90.5417 140.979 91.0208 140.312 91.4375C139.646 91.8958 138.854 92.125 137.938 92.125C137.729 92.125 137.542 92.1042 137.375 92.0625C137.208 92.0625 137.021 92.0417 136.812 92C136.812 92 136.667 91.9167 136.375 91.75C136.083 91.5833 135.75 91.25 135.375 90.75C135.042 90.25 134.729 89.5417 134.438 88.625C134.146 87.7083 134 86.5 134 85C134 84.625 134.062 84.2292 134.188 83.8125C134.354 83.3542 134.521 82.9167 134.688 82.5C134.896 82.0833 135.062 81.6667 135.188 81.25C135.354 80.7917 135.438 80.375 135.438 80C135.438 79.625 135.354 79.2708 135.188 78.9375C135.021 78.6042 134.938 78.25 134.938 77.875C134.938 77.5 135.104 77.25 135.438 77.125C135.771 76.9583 135.938 76.6667 135.938 76.25C135.938 76.0417 135.917 75.8542 135.875 75.6875C135.875 75.5208 135.875 75.3333 135.875 75.125C135.875 74.625 135.958 74.2917 136.125 74.125C136.292 73.9167 136.375 73.6458 136.375 73.3125C136.375 73.0208 136.312 72.8125 136.188 72.6875C136.104 72.5208 136.062 72.3125 136.062 72.0625C136.062 71.7708 136.167 71.5 136.375 71.25C136.583 70.9583 136.729 70.5625 136.812 70.0625C137.104 69.1042 137.333 67.9792 137.5 66.6875C137.667 65.3542 137.854 63.9375 138.062 62.4375C138.312 60.8958 138.583 59.2708 138.875 57.5625C139.167 55.8125 139.583 54.0625 140.125 52.3125C140.292 51.7292 140.458 50.8958 140.625 49.8125C140.833 48.6875 140.958 47.5208 141 46.3125C140.792 46.1875 140.646 46.125 140.562 46.125C140.229 46.125 139.979 46.3958 139.812 46.9375C139.688 47.4792 139.479 47.875 139.188 48.125C138.979 48.2917 138.729 48.375 138.438 48.375C138.188 48.375 137.958 48.4375 137.75 48.5625C137.5 48.7708 137.292 49.0208 137.125 49.3125C137 49.5625 136.854 49.8125 136.688 50.0625C136.562 50.3125 136.375 50.5625 136.125 50.8125C135.875 51.0625 135.5 51.25 135 51.375C134.917 51.4167 134.875 51.5208 134.875 51.6875C134.875 51.8125 134.792 51.875 134.625 51.875H134.5C134.5 51.75 134.396 51.6458 134.188 51.5625C134.021 51.4375 133.812 51.3125 133.562 51.1875C133.312 51.0625 133.083 50.9167 132.875 50.75C132.708 50.5833 132.625 50.375 132.625 50.125C132.625 49.75 132.708 49.4583 132.875 49.25C133.042 49.0417 133.271 48.875 133.562 48.75C133.854 48.625 134.146 48.5 134.438 48.375C134.771 48.2083 135.104 47.9792 135.438 47.6875C135.854 47.2708 136.312 46.7917 136.812 46.25C137.354 45.7083 137.896 45.1667 138.438 44.625C138.979 44.0417 139.542 43.5 140.125 43C140.75 42.4583 141.375 41.9792 142 41.5625C142.125 41.4792 142.146 41.3958 142.062 41.3125C142.021 41.2292 142.146 41.1667 142.438 41.125C142.562 41.125 142.729 41.0625 142.938 40.9375C143.188 40.7708 143.417 40.6042 143.625 40.4375C143.875 40.2292 144.083 40.0625 144.25 39.9375C144.417 39.7708 144.521 39.6875 144.562 39.6875C144.646 39.6875 144.729 39.7083 144.812 39.75C144.938 39.75 145.042 39.75 145.125 39.75C145.458 39.75 145.833 39.6667 146.25 39.5C146.708 39.2917 147.521 39.1875 148.688 39.1875C149.146 39.1875 149.542 39.3333 149.875 39.625C150.25 39.875 150.438 40.4167 150.438 41.25C150.438 41.5 150.333 41.8958 150.125 42.4375C149.917 42.9792 149.688 43.625 149.438 44.375C149.188 45.125 148.958 45.9583 148.75 46.875C148.542 47.7917 148.438 48.75 148.438 49.75C148.438 50.1667 148.458 50.6042 148.5 51.0625C148.542 51.4792 148.562 51.8958 148.562 52.3125C148.562 53.0625 148.417 53.7083 148.125 54.25C147.875 54.75 147.688 55.3542 147.562 56.0625C147.396 56.9375 147.312 57.8542 147.312 58.8125C147.312 59.7708 147.25 60.7292 147.125 61.6875C146.792 63.6875 146.396 65.625 145.938 67.5C145.479 69.375 145.083 71.3125 144.75 73.3125C144.625 73.9792 144.417 74.8333 144.125 75.875C143.875 76.9167 143.75 78.0208 143.75 79.1875C143.75 80.2708 143.938 81.2708 144.312 82.1875C144.938 82.1458 145.458 81.9583 145.875 81.625C146.292 81.2917 146.667 80.9167 147 80.5C147.333 80.0833 147.646 79.6458 147.938 79.1875C148.271 78.7292 148.625 78.3333 149 78C149.25 77.7917 149.604 77.6458 150.062 77.5625C150.562 77.4375 150.979 77.2708 151.312 77.0625C151.646 76.8542 151.875 76.5625 152 76.1875C152.125 75.8125 152.396 75.625 152.812 75.625C152.896 75.625 152.958 75.6458 153 75.6875C153.042 75.6875 153.104 75.6875 153.188 75.6875ZM155.5 12.6875C155.625 12.9375 155.688 13.2083 155.688 13.5C155.688 14 155.521 14.5417 155.188 15.125C154.854 15.7083 154.479 16.2708 154.062 16.8125C153.688 17.3542 153.312 17.8542 152.938 18.3125C152.562 18.7292 152.333 19.0208 152.25 19.1875C152 19.7292 151.792 20.4583 151.625 21.375C151.5 22.2917 151.229 23.125 150.812 23.875C150.646 24.2083 150.5 24.4583 150.375 24.625C150.25 24.7917 150.104 25.1667 149.938 25.75C149.771 26.125 149.562 26.5625 149.312 27.0625C149.062 27.5625 148.792 28.0417 148.5 28.5C148.208 28.9167 147.917 29.2917 147.625 29.625C147.333 29.9167 147.062 30.0625 146.812 30.0625C145.729 30.0625 144.979 29.5417 144.562 28.5C144.188 27.4167 144 26.1458 144 24.6875C144 24.1042 144.021 23.5 144.062 22.875C144.146 22.25 144.229 21.6458 144.312 21.0625C144.396 20.4375 144.604 19.9792 144.938 19.6875C145.271 19.3958 145.542 18.9375 145.75 18.3125C145.958 17.7708 146.104 17.25 146.188 16.75C146.271 16.2083 146.354 15.7083 146.438 15.25C146.562 14.7917 146.688 14.3958 146.812 14.0625C146.979 13.6875 147.229 13.375 147.562 13.125C147.812 12.9583 148.104 12.8125 148.438 12.6875C148.812 12.5625 149.188 12.4792 149.562 12.4375C149.979 12.3542 150.375 12.2917 150.75 12.25C151.167 12.2083 151.5 12.1875 151.75 12.1875C151.75 12.2292 151.938 12.1667 152.312 12C152.688 11.7917 153.104 11.6875 153.562 11.6875C153.646 11.6875 153.917 11.7708 154.375 11.9375C154.875 12.0625 155.25 12.3125 155.5 12.6875ZM198.062 34.4375C198.021 34.5625 198 34.7292 198 34.9375C198 35.1458 198 35.3333 198 35.5C198.042 35.625 198.062 35.7708 198.062 35.9375C198.062 36.3958 197.979 36.75 197.812 37C197.646 37.2083 197.438 37.375 197.188 37.5C196.938 37.625 196.667 37.7292 196.375 37.8125C196.125 37.8958 195.917 38.0208 195.75 38.1875C195.625 38.3125 195.438 38.5208 195.188 38.8125C194.938 39.0625 194.667 39.3333 194.375 39.625C194.125 39.9167 193.854 40.1875 193.562 40.4375C193.312 40.6875 193.104 40.875 192.938 41C192.479 41.25 191.875 41.4792 191.125 41.6875C190.417 41.8542 189.771 42.0833 189.188 42.375C188.604 42.6667 188.125 42.9375 187.75 43.1875C187.375 43.3958 187.021 43.5833 186.688 43.75C186.354 43.9167 185.958 44.0417 185.5 44.125C185.042 44.2083 184.417 44.25 183.625 44.25C183.625 44.1667 183.583 44.0625 183.5 43.9375C183.417 43.8125 183.333 43.75 183.25 43.75C183.208 43.75 183.167 43.7708 183.125 43.8125C182.75 44.2292 182.312 44.4583 181.812 44.5C181.354 44.5417 180.896 44.6667 180.438 44.875C180.021 45.0417 179.646 45.4583 179.312 46.125C179.021 46.7917 178.875 47.9583 178.875 49.625C178.875 50.0417 178.896 50.4583 178.938 50.875C178.979 51.2917 179 51.7083 179 52.125C179 53.25 178.896 54.5 178.688 55.875C178.479 57.2083 178.25 58.625 178 60.125C177.75 61.5833 177.479 63.1042 177.188 64.6875C176.938 66.2292 176.75 67.8125 176.625 69.4375C176.417 71.7708 176.188 74.1667 175.938 76.625C175.729 79.0833 175.625 81.5 175.625 83.875C176.708 83.5417 177.583 82.9583 178.25 82.125C178.958 81.25 179.667 80.4375 180.375 79.6875C180.75 79.2708 181.167 78.8333 181.625 78.375C182.125 77.875 182.625 77.375 183.125 76.875C183.167 76.8333 183.208 76.7292 183.25 76.5625C183.333 76.3542 183.417 76.1458 183.5 75.9375C183.625 75.6875 183.75 75.4792 183.875 75.3125C184 75.1042 184.125 75 184.25 75C184.333 75 184.438 75.0208 184.562 75.0625C184.688 75.1042 184.792 75.125 184.875 75.125C185 75.125 185.125 75.0208 185.25 74.8125C185.375 74.6042 185.521 74.375 185.688 74.125C185.896 73.875 186.125 73.6458 186.375 73.4375C186.625 73.2292 186.938 73.125 187.312 73.125C187.438 73.125 187.542 73.1458 187.625 73.1875C187.75 73.1875 187.812 73.2917 187.812 73.5C187.812 74.125 187.562 74.6667 187.062 75.125C186.604 75.5833 186.229 76.0208 185.938 76.4375C184.688 78.2292 183.292 80.0208 181.75 81.8125C180.25 83.6042 178.854 85.6875 177.562 88.0625C177.354 88.3542 177.188 88.5625 177.062 88.6875C176.938 88.8125 176.812 88.9375 176.688 89.0625C176.562 89.1458 176.375 89.25 176.125 89.375C175.917 89.5 175.604 89.7083 175.188 90C174.771 90.25 174.417 90.5625 174.125 90.9375C173.833 91.3125 173.521 91.6667 173.188 92C172.896 92.375 172.542 92.6667 172.125 92.875C171.708 93.125 171.188 93.25 170.562 93.25C170.229 93.2083 169.854 92.9792 169.438 92.5625C169.021 92.1458 168.625 91.6875 168.25 91.1875C167.917 90.6458 167.625 90.1042 167.375 89.5625C167.125 89.0208 167 88.625 167 88.375C167 88.0833 167.021 87.625 167.062 87C167.146 86.3333 167.25 85.5833 167.375 84.75C167.5 83.9167 167.625 83.0417 167.75 82.125C167.917 81.1667 168.062 80.2083 168.188 79.25C168.271 79.25 168.375 79.2292 168.5 79.1875C168.625 79.1042 168.688 79.0208 168.688 78.9375C168.604 78.8125 168.542 78.6667 168.5 78.5C168.375 78.25 168.312 77.8542 168.312 77.3125C168.312 76.6458 168.375 75.8542 168.5 74.9375C168.625 73.9792 168.75 73.0417 168.875 72.125C169.042 71.1667 169.188 70.2917 169.312 69.5C169.479 68.6667 169.583 68.0208 169.625 67.5625C169.667 66.8958 169.688 66.25 169.688 65.625C169.688 65 169.708 64.375 169.75 63.75C169.792 63.125 169.875 62.4792 170 61.8125C170.125 61.1458 170.312 60.4167 170.562 59.625C170.688 58.7917 170.75 57.9375 170.75 57.0625C170.792 56.1875 170.875 55.3333 171 54.5C171.083 54.0833 171.229 53.6042 171.438 53.0625C171.646 52.5208 171.812 51.9167 171.938 51.25C172.021 50.7917 172.083 50.2708 172.125 49.6875C172.167 49.0625 172.208 48.4792 172.25 47.9375C172.292 47.3958 172.312 46.9375 172.312 46.5625C172.354 46.1875 172.375 46.0208 172.375 46.0625C172.208 45.8125 171.708 45.625 170.875 45.5C170.083 45.375 169.229 45.3125 168.312 45.3125C166.979 45.3125 165.875 45.4792 165 45.8125C164.125 46.1042 163.479 46.6667 163.062 47.5C162.938 47.75 162.833 48.0208 162.75 48.3125C162.708 48.6042 162.625 48.8958 162.5 49.1875C162.417 49.4375 162.25 49.6458 162 49.8125C161.792 49.9792 161.438 50.0625 160.938 50.0625C160.688 50.0625 160.417 50.0208 160.125 49.9375C159.875 49.8542 159.75 49.625 159.75 49.25C159.75 48.6667 159.896 48.1667 160.188 47.75C160.479 47.3333 160.833 46.9375 161.25 46.5625C161.708 46.1875 162.188 45.8333 162.688 45.5C163.188 45.125 163.625 44.7083 164 44.25C164.208 44.0417 164.292 43.8125 164.25 43.5625C164.208 43.3125 164.271 43.0625 164.438 42.8125C164.521 42.6875 164.667 42.6042 164.875 42.5625C165.125 42.5208 165.292 42.4583 165.375 42.375C165.375 42.375 165.521 42.1042 165.812 41.5625C166.104 40.9792 166.542 40.3333 167.125 39.625C167.708 38.9167 168.396 38.2708 169.188 37.6875C170.021 37.1042 170.938 36.8125 171.938 36.8125C172.021 36.8125 172.229 36.9167 172.562 37.125C172.896 37.2917 173.188 37.375 173.438 37.375C173.896 37.375 174.208 37.0417 174.375 36.375C174.583 35.6667 174.708 34.8542 174.75 33.9375C174.833 33.0208 174.875 32.125 174.875 31.25C174.917 30.3333 175.021 29.6875 175.188 29.3125C175.438 28.6875 175.875 28 176.5 27.25C177.167 26.5 177.812 25.7708 178.438 25.0625C179.021 24.3958 179.521 23.7917 179.938 23.25C180.354 22.7083 180.771 22.25 181.188 21.875C181.604 21.4583 182.062 21.125 182.562 20.875C183.104 20.625 183.771 20.4792 184.562 20.4375C184.312 20.8958 184.104 21.4792 183.938 22.1875C183.771 22.8958 183.604 23.6458 183.438 24.4375C183.312 25.1875 183.188 25.9583 183.062 26.75C182.938 27.5 182.792 28.1875 182.625 28.8125V29C182.625 29.1667 182.625 29.3125 182.625 29.4375C182.667 29.5625 182.688 29.7083 182.688 29.875C182.688 30.0417 182.625 30.2292 182.5 30.4375C182.375 30.6458 182.229 30.9583 182.062 31.375C181.938 31.7917 181.812 32.3542 181.688 33.0625C181.562 33.7708 181.5 34.7292 181.5 35.9375C181.5 36.5208 181.542 36.9792 181.625 37.3125C181.708 37.6042 181.854 37.8333 182.062 38C182.312 38.125 182.646 38.2083 183.062 38.25C183.521 38.25 184.104 38.25 184.812 38.25C187.438 38.25 189.583 38.0208 191.25 37.5625C192.917 37.1042 194.104 36.5208 194.812 35.8125C194.979 35.6458 195.292 35.3333 195.75 34.875C196.25 34.375 196.75 34.125 197.25 34.125C197.583 34.125 197.854 34.2292 198.062 34.4375ZM241.75 73.8125C242.083 74.0208 242.25 74.3125 242.25 74.6875C242.25 74.9792 242.146 75.2917 241.938 75.625C241.771 75.9167 241.562 76.2083 241.312 76.5C241.062 76.7917 240.833 77.0417 240.625 77.25C240.417 77.4167 240.312 77.5208 240.312 77.5625C240.021 77.8542 239.792 78.125 239.625 78.375C239.5 78.5833 239.271 78.9167 238.938 79.375C238.646 79.8333 238.375 80.2083 238.125 80.5C237.875 80.7917 237.604 81.0833 237.312 81.375C237.062 81.6667 236.792 81.9792 236.5 82.3125C236.208 82.6458 235.917 83.0625 235.625 83.5625L233.75 85.9375C233.625 86.1458 233.438 86.375 233.188 86.625C232.979 86.8333 232.854 87.0625 232.812 87.3125C232.812 87.5208 232.688 87.7083 232.438 87.875C232.188 88 231.917 88.1458 231.625 88.3125C231.333 88.4375 231.062 88.5833 230.812 88.75C230.562 88.9167 230.438 89.1042 230.438 89.3125C230.438 89.3958 230.458 89.5208 230.5 89.6875C230.542 89.8125 230.562 89.9167 230.562 90C230.562 90.125 230.479 90.1875 230.312 90.1875C230.229 90.1875 230.125 90.1875 230 90.1875C229.875 90.1458 229.771 90.125 229.688 90.125C229.521 90.125 229.396 90.2708 229.312 90.5625C229.271 90.8542 229.208 91.0208 229.125 91.0625C228.875 91.2292 228.417 91.4167 227.75 91.625C227.083 91.8333 226.396 92.0417 225.688 92.25C225.021 92.4583 224.396 92.625 223.812 92.75C223.271 92.9167 222.958 93 222.875 93C222.75 93 222.646 92.9792 222.562 92.9375C222.562 92.8958 222.396 92.75 222.062 92.5C221.729 92.25 221.375 91.9375 221 91.5625C220.625 91.2292 220.271 90.8542 219.938 90.4375C219.604 90.0208 219.438 89.6042 219.438 89.1875C219.438 88.8542 219.458 88.4792 219.5 88.0625C219.583 87.6458 219.667 87.0833 219.75 86.375C219.833 86.375 219.917 86.3542 220 86.3125C220.167 86.2292 220.25 86.1042 220.25 85.9375C220.25 85.7292 220.167 85.5 220 85.25C219.833 85 219.75 84.6875 219.75 84.3125C219.75 83.6875 219.896 83.1458 220.188 82.6875C220.479 82.2292 220.667 81.7708 220.75 81.3125C220.875 79.9375 220.917 78.4792 220.875 76.9375C220.875 75.3958 220.979 73.875 221.188 72.375C221.271 71.6667 221.438 70.9583 221.688 70.25C221.938 69.5 222.083 68.8125 222.125 68.1875C222.125 67.9792 222.104 67.75 222.062 67.5C222.062 67.25 222.062 67.0208 222.062 66.8125C222.062 66.2708 222.146 65.9167 222.312 65.75C222.479 65.5417 222.562 65.2708 222.562 64.9375C222.562 64.5208 222.479 64.1042 222.312 63.6875C222.188 63.2708 222.125 62.8542 222.125 62.4375C222.125 61.3958 222.229 60.3958 222.438 59.4375C222.646 58.4792 222.875 57.5208 223.125 56.5625C223.375 55.5625 223.604 54.5625 223.812 53.5625C224.021 52.5208 224.125 51.4375 224.125 50.3125C224.125 49.9792 224.125 49.625 224.125 49.25C224.125 48.875 224.083 48.5 224 48.125C222.875 48.2083 221.896 48.6667 221.062 49.5C220.271 50.3333 219.521 51.125 218.812 51.875C218.271 52.4583 217.729 53.0417 217.188 53.625C216.688 54.1667 216.146 54.8125 215.562 55.5625C215.146 56.1042 214.771 56.7917 214.438 57.625C214.104 58.4583 213.708 59.3542 213.25 60.3125C213.25 60.3125 213.167 60.3958 213 60.5625C212.833 60.7292 212.646 60.9167 212.438 61.125C212.229 61.3333 212.021 61.5833 211.812 61.875C211.646 62.125 211.5 62.3542 211.375 62.5625C211.042 63.2292 210.75 64.0625 210.5 65.0625C210.25 66.0625 209.75 67.2708 209 68.6875C208.833 69.0208 208.688 69.2708 208.562 69.4375C208.479 69.5625 208.396 69.8125 208.312 70.1875C208.229 70.5208 208.125 71.0625 208 71.8125C207.917 72.5625 207.792 73.6875 207.625 75.1875C207.542 75.6875 207.396 76.1458 207.188 76.5625C206.979 76.9375 206.833 77.4167 206.75 78C206.625 78.8333 206.562 79.75 206.562 80.75C206.562 81.7083 206.458 82.6458 206.25 83.5625C206.167 83.7708 206 83.9583 205.75 84.125C205.542 84.2917 205.396 84.4375 205.312 84.5625C205.021 85.0208 204.854 85.5 204.812 86C204.812 86.5 204.667 86.9375 204.375 87.3125C204.292 87.4375 204.125 87.5417 203.875 87.625C203.625 87.6667 203.479 87.7292 203.438 87.8125C203.104 88.4375 202.854 89.0208 202.688 89.5625C202.521 90.0625 202.354 90.5 202.188 90.875C202.062 91.25 201.875 91.5417 201.625 91.75C201.417 91.9583 201.062 92.0625 200.562 92.0625C200.188 92.0625 199.75 92 199.25 91.875C198.792 91.75 198.333 91.5833 197.875 91.375C197.458 91.1667 197.104 90.9375 196.812 90.6875C196.521 90.3958 196.375 90.1042 196.375 89.8125C196.375 89.4375 196.542 89 196.875 88.5C197.208 88 197.375 87.1667 197.375 86C197.375 85.25 197.312 84.6458 197.188 84.1875C197.104 83.6875 197.062 83.1667 197.062 82.625C197.062 82.2083 197.125 81.8125 197.25 81.4375C197.417 81.0208 197.562 80.6458 197.688 80.3125C197.854 79.9375 198 79.5833 198.125 79.25C198.292 78.875 198.375 78.5208 198.375 78.1875C198.375 77.8542 198.354 77.5417 198.312 77.25C198.271 76.9583 198.25 76.6458 198.25 76.3125C198.25 75.6458 198.375 75 198.625 74.375C198.875 73.75 199.083 73.0833 199.25 72.375C199.375 71.8333 199.458 71.2292 199.5 70.5625C199.583 69.8958 199.667 69.2708 199.75 68.6875C200.208 65.8542 200.729 63 201.312 60.125C201.938 57.2083 202.5 54.1458 203 50.9375C203 50.8542 203.062 50.7083 203.188 50.5C203.354 50.2917 203.438 50.0625 203.438 49.8125C203.438 49.6042 203.417 49.3542 203.375 49.0625C203.375 48.7708 203.375 48.4583 203.375 48.125C203.375 47.4167 203.542 46.7708 203.875 46.1875C204.208 45.5625 204.375 44.8542 204.375 44.0625C204.375 43.4792 204.312 42.9583 204.188 42.5C204.062 42 204 41.4792 204 40.9375C204 40.5208 204.062 40.1667 204.188 39.875C204.354 39.5833 204.521 39.3333 204.688 39.125C204.854 38.9167 205 38.7292 205.125 38.5625C205.292 38.3542 205.375 38.1458 205.375 37.9375C205.375 37.6042 205.271 37.3542 205.062 37.1875C204.896 37.0208 204.812 36.8125 204.812 36.5625C204.979 36.5625 205.104 36.4375 205.188 36.1875L205.312 35.8125V35.25C205.312 34.8333 205.417 34.4583 205.625 34.125C205.875 33.75 206.083 33.2917 206.25 32.75C206.458 32.0833 206.562 31.4583 206.562 30.875C206.562 30.2917 206.625 29.5208 206.75 28.5625C206.833 28.0208 207 27.4792 207.25 26.9375C207.542 26.3542 207.688 25.5833 207.688 24.625C207.688 24.1667 207.646 23.75 207.562 23.375C207.521 22.9583 207.5 22.5417 207.5 22.125C207.5 21.75 207.542 21.4375 207.625 21.1875C207.75 20.9375 207.875 20.7292 208 20.5625C208.167 20.3542 208.292 20.1667 208.375 20C208.5 19.8333 208.562 19.625 208.562 19.375C208.562 19.0417 208.479 18.7292 208.312 18.4375C208.188 18.1458 208.125 17.8333 208.125 17.5C208.125 17.0417 208.208 16.4792 208.375 15.8125C208.542 15.1458 208.729 14.4792 208.938 13.8125C209.188 13.1458 209.396 12.5625 209.562 12.0625C209.729 11.5208 209.812 11.1667 209.812 11C209.812 10.625 209.646 10.375 209.312 10.25C208.979 10.0833 208.708 10 208.5 10C208.042 10 207.625 10.1667 207.25 10.5C206.875 10.7917 206.5 11.1667 206.125 11.625C205.792 12.0417 205.479 12.4792 205.188 12.9375C204.896 13.3958 204.625 13.7708 204.375 14.0625C204.167 14.2708 203.917 14.4375 203.625 14.5625C203.333 14.6458 203.125 14.7917 203 15C202.833 15.2083 202.646 15.4792 202.438 15.8125C202.271 16.1042 202.062 16.4167 201.812 16.75C201.604 17.0417 201.375 17.2917 201.125 17.5C200.917 17.7083 200.688 17.8125 200.438 17.8125C200.188 17.8125 199.854 17.6042 199.438 17.1875C199.062 16.7708 198.875 16.3333 198.875 15.875C198.875 15.6667 198.938 15.5 199.062 15.375C199.229 15.25 199.396 15.125 199.562 15C199.771 14.875 199.979 14.7083 200.188 14.5C200.396 14.25 200.542 13.9375 200.625 13.5625C200.75 13.0208 201.042 12.5208 201.5 12.0625C201.958 11.6042 202.521 11.1042 203.188 10.5625C203.896 10.0208 204.708 9.375 205.625 8.625C206.542 7.83333 207.521 6.85417 208.562 5.6875C208.896 5.3125 209.292 5 209.75 4.75C210.208 4.5 210.604 4.1875 210.938 3.8125C211.104 3.64583 211.188 3.41667 211.188 3.125C211.188 2.83333 211.25 2.58333 211.375 2.375C211.5 2.25 211.75 2.0625 212.125 1.8125C212.5 1.52083 212.917 1.25 213.375 1C213.833 0.708333 214.271 0.479167 214.688 0.3125C215.104 0.104167 215.396 0 215.562 0C216.979 0 217.854 0.270833 218.188 0.8125C218.562 1.3125 218.75 1.95833 218.75 2.75C218.75 3.45833 218.646 4.27083 218.438 5.1875C218.271 6.0625 218.062 7 217.812 8C217.604 8.95833 217.396 9.9375 217.188 10.9375C217.021 11.9375 216.938 12.875 216.938 13.75C216.938 14.1667 216.958 14.5417 217 14.875C217.042 15.1667 217.062 15.4792 217.062 15.8125C217.062 16.6042 216.854 17.2917 216.438 17.875C216.021 18.4167 215.729 19.0208 215.562 19.6875C215.354 20.5625 215.208 21.3958 215.125 22.1875C215.042 22.9792 214.958 23.7917 214.875 24.625C214.833 25.4167 214.771 26.25 214.688 27.125C214.604 28 214.438 28.9375 214.188 29.9375C214.062 30.4792 213.854 31.0833 213.562 31.75C213.271 32.375 213.125 33.125 213.125 34C213.125 34.2917 213.146 34.5833 213.188 34.875C213.271 35.1667 213.312 35.5 213.312 35.875C213.312 36.5 213.25 37.25 213.125 38.125C213.042 39 212.917 39.9167 212.75 40.875C212.625 41.7917 212.479 42.7292 212.312 43.6875C212.146 44.6042 211.979 45.4792 211.812 46.3125C211.771 46.4375 211.688 46.75 211.562 47.25C211.438 47.7083 211.292 48.25 211.125 48.875C211 49.5 210.875 50.1667 210.75 50.875C210.667 51.5417 210.625 52.1458 210.625 52.6875C210.625 53.2708 210.688 53.7292 210.812 54.0625C210.979 54.3958 211.208 54.5625 211.5 54.5625C211.792 54.5625 212.104 54.375 212.438 54C212.771 53.625 213.104 53.2083 213.438 52.75C213.771 52.2917 214.083 51.875 214.375 51.5C214.708 51.125 215 50.9375 215.25 50.9375C215.333 50.9375 215.438 50.9583 215.562 51C215.688 51 215.792 51 215.875 51C216 51 216.062 50.9167 216.062 50.75C216.062 50.6667 216.042 50.5625 216 50.4375C215.958 50.3125 215.938 50.2083 215.938 50.125C215.938 50.0417 216.083 49.8958 216.375 49.6875C216.667 49.4375 216.875 49.2292 217 49.0625C217.292 48.5625 217.604 47.9792 217.938 47.3125C218.271 46.6458 218.729 46.3125 219.312 46.3125C219.396 46.3125 219.792 45.9583 220.5 45.25C221.208 44.5 222.062 43.6875 223.062 42.8125C224.104 41.9375 225.208 41.1458 226.375 40.4375C227.583 39.6875 228.729 39.3125 229.812 39.3125C231.271 39.3125 232.333 39.5625 233 40.0625C233.708 40.5208 234.062 41.375 234.062 42.625C234.062 43.5833 234 44.5 233.875 45.375C233.75 46.25 233.604 47.0208 233.438 47.6875C233.312 48.3125 233.167 48.8333 233 49.25C232.875 49.6667 232.812 49.9167 232.812 50C232.729 51.9167 232.458 53.9583 232 56.125C231.542 58.2917 231.208 60.4375 231 62.5625C230.833 64.0625 230.667 65.5417 230.5 67C230.375 68.4583 230.208 69.9583 230 71.5C229.792 72.8333 229.5 74.2292 229.125 75.6875C228.792 77.1458 228.625 78.5208 228.625 79.8125C228.625 80.5208 228.667 81.2292 228.75 81.9375C228.833 82.6042 228.875 83.2917 228.875 84C228.875 84.75 228.792 85.3958 228.625 85.9375C228.792 86.0625 229 86.125 229.25 86.125C229.542 86.125 229.812 86 230.062 85.75C230.312 85.5 230.542 85.2292 230.75 84.9375C231 84.6042 231.25 84.3125 231.5 84.0625C231.75 83.7708 232.042 83.6042 232.375 83.5625C232.375 83.5625 232.521 83.4167 232.812 83.125C233.146 82.8333 233.5 82.5 233.875 82.125C234.25 81.75 234.604 81.3958 234.938 81.0625C235.312 80.6875 235.542 80.4375 235.625 80.3125C235.792 80.1458 235.854 79.9375 235.812 79.6875C235.812 79.3958 235.917 79.1458 236.125 78.9375C236.208 78.8125 236.354 78.7292 236.562 78.6875C236.771 78.6458 236.917 78.5833 237 78.5C237.125 78.2917 237.208 78.0625 237.25 77.8125C237.292 77.5208 237.375 77.2708 237.5 77.0625C237.583 76.9375 237.729 76.8542 237.938 76.8125C238.188 76.7708 238.354 76.6875 238.438 76.5625C238.479 76.5208 238.542 76.3333 238.625 76C238.75 75.6667 238.896 75.3333 239.062 75C239.271 74.625 239.5 74.2917 239.75 74C240.042 73.7083 240.396 73.5625 240.812 73.5625C241.104 73.5625 241.417 73.6458 241.75 73.8125ZM302.438 58.375C302.438 59.9583 302.312 61.625 302.062 63.375C301.854 65.125 301.542 66.8333 301.125 68.5C300.708 70.1667 300.208 71.75 299.625 73.25C299.083 74.7083 298.479 75.9792 297.812 77.0625C297.729 77.1875 297.625 77.2292 297.5 77.1875C297.417 77.1042 297.375 77.2083 297.375 77.5C297.25 77.9167 297.083 78.2292 296.875 78.4375C296.708 78.6042 296.521 78.7292 296.312 78.8125C296.104 78.8958 295.875 78.9792 295.625 79.0625C295.375 79.1042 295.167 79.2083 295 79.375C294.792 79.5417 294.479 79.9167 294.062 80.5C293.646 81.0417 293.188 81.625 292.688 82.25C292.188 82.8333 291.708 83.375 291.25 83.875C290.792 84.3333 290.438 84.5625 290.188 84.5625C290.104 84.5625 290 84.5417 289.875 84.5C289.75 84.4583 289.646 84.4375 289.562 84.4375C289.438 84.4375 289.375 84.4583 289.375 84.5C289 84.9583 288.417 85.4375 287.625 85.9375C286.875 86.4375 286.083 86.9167 285.25 87.375C284.417 87.7917 283.646 88.1667 282.938 88.5C282.229 88.8333 281.729 89.0625 281.438 89.1875C280.896 89.4792 280.354 89.7083 279.812 89.875C279.271 90 278.583 90.2292 277.75 90.5625C277.542 90.6458 277.271 90.8125 276.938 91.0625C276.646 91.3125 276.458 91.4583 276.375 91.5C274.75 91.9167 272.625 92.125 270 92.125C267.375 92.1667 264.5 92.2708 261.375 92.4375C260.792 92.4792 260.167 92.5625 259.5 92.6875C258.833 92.8125 258.208 92.875 257.625 92.875C256.917 92.875 256.25 92.8333 255.625 92.75C255 92.7083 254.333 92.6875 253.625 92.6875C253 92.6875 252.312 92.7708 251.562 92.9375C250.812 93.1458 250.208 93.2917 249.75 93.375C249.458 93.375 249.229 93.2917 249.062 93.125C248.938 92.9583 248.854 92.875 248.812 92.875C248.438 92.875 247.958 92.8958 247.375 92.9375C246.833 93.0208 246.271 93.0625 245.688 93.0625C245.146 93.0625 244.688 93.0208 244.312 92.9375C243.938 92.8542 243.75 92.6667 243.75 92.375C243.75 91.9583 244.125 91.4583 244.875 90.875C245.625 90.2917 246.312 89.5625 246.938 88.6875C247.312 88.1042 247.604 87.7083 247.812 87.5C248.021 87.2917 248.208 87.1667 248.375 87.125C248.583 87.0833 248.792 87.0833 249 87.125C249.208 87.125 249.458 87.0208 249.75 86.8125C250.042 86.6875 250.292 86.4167 250.5 86C250.75 85.5833 251.125 85.25 251.625 85C251.833 84.875 252.083 84.8125 252.375 84.8125C252.708 84.8125 252.917 84.7083 253 84.5C253.083 84.375 253.167 84.0625 253.25 83.5625C253.375 83.0208 253.479 82.4375 253.562 81.8125C253.646 81.1458 253.708 80.5 253.75 79.875C253.833 79.25 253.896 78.7708 253.938 78.4375C254.104 77.3125 254.229 76.3125 254.312 75.4375C254.438 74.5208 254.542 73.6458 254.625 72.8125C254.75 71.9792 254.854 71.125 254.938 70.25C255.062 69.3333 255.208 68.3333 255.375 67.25C255.417 66.9583 255.458 66.5625 255.5 66.0625C255.542 65.5625 255.583 65.0208 255.625 64.4375C255.708 63.8542 255.792 63.2917 255.875 62.75C256 62.1667 256.125 61.6458 256.25 61.1875C256.667 59.9375 256.958 58.4167 257.125 56.625C257.292 54.8333 257.417 53.0208 257.5 51.1875C257.583 49.3542 257.646 47.625 257.688 46C257.771 44.3333 257.917 43.0208 258.125 42.0625C258.25 41.4792 258.438 40.8958 258.688 40.3125C258.979 39.7292 259.125 39.1458 259.125 38.5625C259.125 38.2292 259.104 37.9167 259.062 37.625C259.021 37.3333 259 37.0208 259 36.6875C259 36.4375 259.062 36.0625 259.188 35.5625C259.312 35.0208 259.438 34.4583 259.562 33.875C259.688 33.2917 259.812 32.7083 259.938 32.125C260.062 31.5417 260.125 31.0417 260.125 30.625C260.125 29.9583 259.854 29.5208 259.312 29.3125C258.812 29.1042 258.292 29 257.75 29C257.042 29 256.271 29.0833 255.438 29.25C254.646 29.375 253.875 29.4375 253.125 29.4375C252.917 29.4375 252.688 29.4375 252.438 29.4375C252.188 29.3958 251.958 29.375 251.75 29.375C251.042 29.375 250.458 29.4792 250 29.6875C249.583 29.8958 249.188 30.1458 248.812 30.4375C248.479 30.6875 248.146 30.9167 247.812 31.125C247.521 31.3333 247.188 31.4375 246.812 31.4375C246.479 31.4375 246.208 31.3958 246 31.3125C246.083 30.6458 246.312 30.0417 246.688 29.5C247.104 28.9583 247.583 28.4583 248.125 28C248.667 27.5 249.229 27.0417 249.812 26.625C250.438 26.2083 251.042 25.75 251.625 25.25C251.958 24.9583 252.312 24.5833 252.688 24.125C253.062 23.6667 253.458 23.2083 253.875 22.75C254.333 22.2917 254.792 21.875 255.25 21.5C255.708 21.0833 256.208 20.7708 256.75 20.5625C257 20.4792 257.479 20.4375 258.188 20.4375C258.896 20.4375 259.646 20.4167 260.438 20.375C261.271 20.3333 262.042 20.2708 262.75 20.1875C263.458 20.1042 263.938 19.9167 264.188 19.625C264.354 19.4583 264.417 19.2292 264.375 18.9375C264.375 18.6458 264.458 18.4167 264.625 18.25C264.792 18.0833 265 17.9375 265.25 17.8125C265.542 17.6875 265.812 17.5625 266.062 17.4375C266.312 17.3125 266.521 17.1875 266.688 17.0625C266.896 16.9375 267 16.8125 267 16.6875C267 16.6042 266.979 16.5 266.938 16.375C266.938 16.25 266.938 16.1458 266.938 16.0625C266.938 15.8958 267.062 15.75 267.312 15.625C267.604 15.4583 267.812 15.25 267.938 15C267.979 14.9167 268.062 14.7292 268.188 14.4375C268.312 14.1042 268.458 13.7708 268.625 13.4375C268.792 13.1042 268.958 12.8125 269.125 12.5625C269.292 12.3125 269.438 12.1875 269.562 12.1875C269.729 12.1875 269.958 12.2708 270.25 12.4375C270.583 12.5625 270.75 12.6667 270.75 12.75C270.75 13 270.708 13.375 270.625 13.875C270.542 14.3333 270.438 14.8542 270.312 15.4375C270.188 15.9792 270.083 16.5625 270 17.1875C269.917 17.7708 269.875 18.3333 269.875 18.875C269.875 19.5 269.958 20.0208 270.125 20.4375C270.333 20.8125 270.729 21 271.312 21C271.521 21 271.708 21 271.875 21C272.083 20.9583 272.354 20.9375 272.688 20.9375C272.938 20.9375 273.271 20.9792 273.688 21.0625C274.104 21.1042 274.667 21.25 275.375 21.5C275.583 21.5833 275.771 21.7708 275.938 22.0625C276.146 22.3542 276.375 22.5 276.625 22.5C276.75 22.5 276.875 22.5 277 22.5C277.167 22.4583 277.312 22.4375 277.438 22.4375H277.75C277.875 22.4792 278.125 22.5833 278.5 22.75C278.917 22.875 279.375 23.0417 279.875 23.25C280.375 23.4167 280.854 23.6042 281.312 23.8125C281.771 24.0208 282.125 24.1875 282.375 24.3125C282.5 24.3542 282.583 24.5 282.625 24.75C282.708 25 282.792 25.1667 282.875 25.25C283.417 25.5 284.062 25.8333 284.812 26.25C285.604 26.625 286.354 27.0625 287.062 27.5625C287.396 27.8125 287.688 28.125 287.938 28.5C288.229 28.8333 288.562 29.1458 288.938 29.4375C289.396 29.8125 289.833 30.0833 290.25 30.25C290.708 30.4167 291.042 30.6042 291.25 30.8125C291.583 31.1875 291.771 31.6042 291.812 32.0625C291.854 32.4792 291.979 32.8542 292.188 33.1875C292.646 33.8958 293.229 34.625 293.938 35.375C294.688 36.0833 295.354 36.8958 295.938 37.8125C296.146 38.1875 296.292 38.625 296.375 39.125C296.458 39.625 296.625 40.125 296.875 40.625C296.958 40.7917 297.104 41.0208 297.312 41.3125C297.521 41.5625 297.729 41.8542 297.938 42.1875C298.146 42.4792 298.333 42.7917 298.5 43.125C298.667 43.4167 298.75 43.7083 298.75 44C298.75 44.0833 298.729 44.2083 298.688 44.375C298.688 44.5 298.688 44.6042 298.688 44.6875C298.688 44.7708 298.854 45.0208 299.188 45.4375C299.521 45.8542 299.688 46.1875 299.688 46.4375C299.688 46.5208 299.667 46.6458 299.625 46.8125C299.625 46.9375 299.625 47.0417 299.625 47.125V47.1875C300.042 47.5208 300.417 48.1458 300.75 49.0625C301.083 49.9792 301.375 51 301.625 52.125C301.875 53.25 302.062 54.375 302.188 55.5C302.354 56.625 302.438 57.5833 302.438 58.375ZM295.438 68.625C295.479 68.2083 295.5 67.8125 295.5 67.4375C295.5 67.0208 295.5 66.6042 295.5 66.1875C295.5 64.8542 295.438 63.6042 295.312 62.4375C295.229 61.2708 295.125 60.3958 295 59.8125C294.667 58.3958 294.354 56.9792 294.062 55.5625C293.812 54.1458 293.5 52.8958 293.125 51.8125C292.75 50.7708 292.417 49.9583 292.125 49.375C291.833 48.75 291.542 48.1667 291.25 47.625C290.875 46.875 290.5 46.0625 290.125 45.1875C289.792 44.3125 289.438 43.4583 289.062 42.625C288.688 41.7917 288.292 41 287.875 40.25C287.5 39.4583 287.083 38.8125 286.625 38.3125C286.5 38.1875 286.292 38.0417 286 37.875C285.708 37.7083 285.375 37.5417 285 37.375C284.667 37.1667 284.333 36.9792 284 36.8125C283.708 36.6458 283.5 36.5208 283.375 36.4375C282.208 35.7708 281.229 35.2083 280.438 34.75C279.646 34.2917 278.896 33.8958 278.188 33.5625C277.479 33.1875 276.771 32.875 276.062 32.625C275.354 32.3333 274.521 32.0625 273.562 31.8125C272.729 31.3958 271.979 31.125 271.312 31C270.646 30.875 269.833 30.8125 268.875 30.8125C268.292 30.8125 268 30.9375 268 31.1875C268.042 31.3958 268.021 31.75 267.938 32.25C267.688 33.7083 267.417 35.1875 267.125 36.6875C266.875 38.1458 266.688 39.6042 266.562 41.0625C266.354 43.6458 266.188 46.3125 266.062 49.0625C265.979 51.7708 265.833 54.25 265.625 56.5C265.5 57.1667 265.312 57.8125 265.062 58.4375C264.812 59.0625 264.667 59.5208 264.625 59.8125C264.625 59.9375 264.708 60.125 264.875 60.375C265.042 60.625 265.125 60.7292 265.125 60.6875C264.917 62.2292 264.688 63.7917 264.438 65.375C264.188 66.9583 263.958 68.5208 263.75 70.0625C263.583 71.3958 263.458 72.75 263.375 74.125C263.292 75.4583 263.167 76.75 263 78C262.833 79.25 262.583 80.4167 262.25 81.5C261.958 82.5417 261.521 83.3958 260.938 84.0625C260.646 84.2292 260.5 84.3542 260.5 84.4375C260.5 84.5625 260.688 84.7083 261.062 84.875C261.438 85.0417 261.792 85.125 262.125 85.125C262.875 85.125 263.729 85.0625 264.688 84.9375C265.688 84.8125 266.667 84.6667 267.625 84.5C268.583 84.2917 269.5 84.1042 270.375 83.9375C271.292 83.7708 272.042 83.6458 272.625 83.5625C273.917 83.3958 275.375 83.25 277 83.125C278.625 83 279.958 82.8333 281 82.625C282.083 82.4167 282.854 82.1875 283.312 81.9375C283.812 81.6875 284.292 81.4583 284.75 81.25C285.708 80.7917 286.667 80.375 287.625 80C288.583 79.5833 289.5 79.1667 290.375 78.75C291.292 78.3333 292.125 77.8958 292.875 77.4375C293.667 76.9375 294.375 76.3333 295 75.625C295.125 75.375 295.208 75 295.25 74.5C295.333 73.9583 295.375 73.375 295.375 72.75C295.417 72.0833 295.438 71.3958 295.438 70.6875C295.438 69.9375 295.438 69.25 295.438 68.625ZM343.25 46.9375C343.167 48.5208 342.938 49.9583 342.562 51.25C342.229 52.5417 341.792 53.7292 341.25 54.8125C340.75 55.8958 340.188 56.8958 339.562 57.8125C338.938 58.7292 338.292 59.625 337.625 60.5C337.208 61.0417 336.875 61.5208 336.625 61.9375C336.375 62.3125 336.125 62.6458 335.875 62.9375C335.625 63.2292 335.354 63.4792 335.062 63.6875C334.771 63.8958 334.375 64.0625 333.875 64.1875C333.542 64.2708 333.146 64.375 332.688 64.5C332.271 64.5833 331.896 64.7917 331.562 65.125C331.479 65.2083 331.396 65.375 331.312 65.625C331.229 65.8333 331.146 65.9792 331.062 66.0625C330.729 66.3125 330.333 66.4792 329.875 66.5625C329.458 66.6042 329.083 66.75 328.75 67C328.417 67.2917 328.188 67.5417 328.062 67.75C327.938 67.9583 327.708 68.1667 327.375 68.375C327.042 68.5833 326.646 68.75 326.188 68.875C325.771 68.9583 325.375 69.1042 325 69.3125C324.708 69.5208 324.479 69.7708 324.312 70.0625C324.188 70.3125 323.958 70.5417 323.625 70.75C322.958 71.2083 322.396 71.5625 321.938 71.8125C321.479 72.0208 321.104 72.3333 320.812 72.75C320.562 73.1667 320.375 73.7708 320.25 74.5625C320.125 75.3542 320.062 76.5625 320.062 78.1875C320.062 79.1458 320.083 80.0625 320.125 80.9375C320.208 81.8125 320.292 82.4583 320.375 82.875C320.417 83 320.542 83.2917 320.75 83.75C321 84.1667 321.292 84.625 321.625 85.125C322 85.625 322.417 86.0833 322.875 86.5C323.333 86.875 323.812 87.0625 324.312 87.0625C325.062 87.0625 325.729 86.7917 326.312 86.25C326.896 85.6667 327.542 85.1667 328.25 84.75C328.792 84.4167 329.5 83.9792 330.375 83.4375C331.25 82.8542 331.958 82.2083 332.5 81.5C332.667 81.25 332.875 80.9167 333.125 80.5C333.375 80.0417 333.646 79.6042 333.938 79.1875C334.271 78.7292 334.625 78.3542 335 78.0625C335.417 77.7292 335.875 77.5625 336.375 77.5625C336.583 77.5625 336.854 77.625 337.188 77.75C337.146 78.4583 336.917 79.1042 336.5 79.6875C336.125 80.2708 335.688 80.8125 335.188 81.3125C334.729 81.7708 334.312 82.1875 333.938 82.5625C333.562 82.9375 333.375 83.25 333.375 83.5C333.375 83.5833 333.375 83.7083 333.375 83.875C333.417 84 333.438 84.1042 333.438 84.1875C333.438 84.3958 333.188 84.5625 332.688 84.6875C332.229 84.7708 331.854 84.9375 331.562 85.1875C331.354 85.3958 331.188 85.6458 331.062 85.9375C330.979 86.1875 330.833 86.3958 330.625 86.5625C330.167 86.9375 329.688 87.2708 329.188 87.5625C328.688 87.8542 328.229 88.1667 327.812 88.5C327.354 88.9167 326.875 89.3958 326.375 89.9375C325.917 90.4792 325.458 90.9792 325 91.4375C324.542 91.9375 324.083 92.3542 323.625 92.6875C323.208 93.0208 322.812 93.1875 322.438 93.1875C322.229 93.1875 322 93.1458 321.75 93.0625C321.542 93.0208 321.333 93 321.125 93C320.917 93 320.75 93.0833 320.625 93.25C320.5 93.4167 320.333 93.5 320.125 93.5C319.75 93.5 319.312 93.3125 318.812 92.9375C318.312 92.6042 317.896 92.3542 317.562 92.1875C316.979 91.9792 316.292 91.8333 315.5 91.75C314.708 91.7083 314.146 91.5625 313.812 91.3125C313.521 91.0625 313.292 90.6042 313.125 89.9375C313 89.2708 312.771 88.625 312.438 88C312.104 87.4167 311.729 86.9375 311.312 86.5625C310.896 86.1875 310.646 85.8958 310.562 85.6875C310.479 85.4375 310.417 85.1042 310.375 84.6875C310.375 84.2292 310.375 83.7708 310.375 83.3125C310.375 82.8125 310.354 82.3333 310.312 81.875C310.271 81.375 310.188 80.9375 310.062 80.5625C310.021 80.4375 309.938 80.3333 309.812 80.25C309.688 80.125 309.625 79.8958 309.625 79.5625C309.625 79.6042 309.688 79.5208 309.812 79.3125C309.979 79.0625 310.062 78.8542 310.062 78.6875C310.271 75.3958 310.562 72.2708 310.938 69.3125C311.354 66.3125 311.875 63.5833 312.5 61.125C313.125 58.625 313.875 56.4583 314.75 54.625C315.667 52.75 316.75 51.2708 318 50.1875C318.208 50.0208 318.438 49.9583 318.688 50C318.979 50 319.229 49.9167 319.438 49.75C319.521 49.6667 319.583 49.5208 319.625 49.3125C319.708 49.0625 319.792 48.8958 319.875 48.8125C320.083 48.6458 320.312 48.5625 320.562 48.5625C320.854 48.5625 321.083 48.4792 321.25 48.3125C321.375 48.2292 321.542 48.0625 321.75 47.8125C321.958 47.5625 322.167 47.2917 322.375 47C322.583 46.7083 322.792 46.4375 323 46.1875C323.208 45.8958 323.417 45.6875 323.625 45.5625C324.125 45.2292 324.729 45 325.438 44.875C326.146 44.75 326.792 44.5 327.375 44.125C327.542 44.0417 327.729 43.875 327.938 43.625C328.146 43.375 328.354 43.125 328.562 42.875C328.812 42.5833 329.042 42.3333 329.25 42.125C329.458 41.9167 329.667 41.8125 329.875 41.8125C329.958 41.8125 330.062 41.8333 330.188 41.875C330.312 41.875 330.417 41.875 330.5 41.875C330.583 41.875 330.896 41.625 331.438 41.125C332.021 40.625 332.542 40.2292 333 39.9375C333.125 39.8542 333.188 39.7083 333.188 39.5C333.229 39.25 333.312 39.0833 333.438 39C333.646 38.8333 333.979 38.7083 334.438 38.625C334.896 38.5 335.333 38.3125 335.75 38.0625C336.083 37.8542 336.333 37.6458 336.5 37.4375C336.667 37.2292 337.042 37.125 337.625 37.125C339.125 37.25 340.271 37.5208 341.062 37.9375C341.854 38.3542 342.396 38.9583 342.688 39.75C343.021 40.5 343.188 41.4792 343.188 42.6875C343.229 43.8542 343.25 45.2708 343.25 46.9375ZM334.375 46.9375C334.333 46.8542 334.167 46.7083 333.875 46.5C333.625 46.25 333.479 46.0833 333.438 46C333.312 45.7917 333.25 45.5833 333.25 45.375C333.25 45.125 333.229 44.8958 333.188 44.6875C333.146 44.4792 333.062 44.3125 332.938 44.1875C332.854 44.0625 332.667 44 332.375 44C332.125 44 331.75 44.1458 331.25 44.4375C330.792 44.6875 330.292 45 329.75 45.375C329.25 45.75 328.771 46.125 328.312 46.5C327.854 46.875 327.542 47.1667 327.375 47.375C327.167 47.625 326.875 48.0833 326.5 48.75C326.167 49.375 325.812 50.0208 325.438 50.6875C325.104 51.3542 324.792 51.9375 324.5 52.4375C324.208 52.9375 324.042 53.1875 324 53.1875C324 53.2708 324 53.375 324 53.5C324.042 53.625 324.062 53.7292 324.062 53.8125C324.062 54.0625 323.896 54.2917 323.562 54.5C323.229 54.6667 323.062 55.0208 323.062 55.5625C323.062 55.7708 323.083 56.0208 323.125 56.3125C323.167 56.5625 323.188 56.7917 323.188 57C323.188 57.3333 323.042 57.6667 322.75 58C322.5 58.3333 322.333 58.6875 322.25 59.0625C321.875 60.3958 321.5 61.8333 321.125 63.375C320.75 64.875 320.562 66.3542 320.562 67.8125C320.562 68.2708 320.604 68.6667 320.688 69C320.812 69.2917 321.146 69.4375 321.688 69.4375C322.062 69.4375 322.333 69.375 322.5 69.25C322.708 69.0833 322.875 68.8958 323 68.6875C323.125 68.4375 323.229 68.2083 323.312 68C323.396 67.7917 323.5 67.625 323.625 67.5C324.167 67 324.792 66.4792 325.5 65.9375C326.208 65.3958 326.917 64.8333 327.625 64.25C328.375 63.625 329.083 63 329.75 62.375C330.458 61.75 331.062 61.125 331.562 60.5C331.688 60.2917 331.812 59.9583 331.938 59.5C332.062 59 332.25 58.5417 332.5 58.125C333.125 57.0417 333.604 55.6458 333.938 53.9375C334.312 52.2292 334.5 50.3542 334.5 48.3125C334.5 48.1042 334.479 47.875 334.438 47.625C334.438 47.375 334.417 47.1458 334.375 46.9375ZM386.562 41.5625C386.646 41.8125 386.688 42.1458 386.688 42.5625C386.688 43.0208 386.646 43.5417 386.562 44.125C386.479 44.6667 386.333 45.2292 386.125 45.8125C385.958 46.1875 385.729 46.6042 385.438 47.0625C385.188 47.5208 384.958 48.0208 384.75 48.5625C384.542 49.0625 384.375 49.5833 384.25 50.125C384.125 50.6667 383.958 51.2292 383.75 51.8125C383.583 52.1875 383.375 52.5208 383.125 52.8125C382.917 53.0625 382.812 53.3125 382.812 53.5625C382.812 53.7708 382.833 53.9583 382.875 54.125C382.917 54.2917 382.938 54.4792 382.938 54.6875C382.938 54.9792 382.833 55.2292 382.625 55.4375C382.458 55.6458 382.229 55.8542 381.938 56.0625C381.688 56.2708 381.417 56.5 381.125 56.75C380.875 56.9583 380.667 57.1875 380.5 57.4375C380.292 57.7708 380.208 58.0833 380.25 58.375C380.292 58.6667 380.229 58.9792 380.062 59.3125C379.562 60.3125 378.917 61.4583 378.125 62.75C377.333 64.0417 376.583 65.3958 375.875 66.8125C375.625 67.3125 375.396 67.8542 375.188 68.4375C374.979 69.0208 374.75 69.5625 374.5 70.0625C374.125 70.7708 373.604 71.5 372.938 72.25C372.312 72.9583 371.896 73.625 371.688 74.25C371.521 74.5417 371.438 74.8542 371.438 75.1875C371.479 75.5208 371.396 75.8125 371.188 76.0625C370.854 76.5625 370.458 76.9583 370 77.25C369.542 77.5417 369.167 77.9375 368.875 78.4375C368.667 78.7708 368.5 79.2083 368.375 79.75C368.292 80.2917 368.146 80.7917 367.938 81.25C367.646 81.8333 367.208 82.5 366.625 83.25C366.042 84 365.542 84.7292 365.125 85.4375C365.042 85.5625 364.854 85.9375 364.562 86.5625C364.271 87.1458 363.938 87.8125 363.562 88.5625C363.229 89.2708 362.854 89.9583 362.438 90.625C362.062 91.2917 361.708 91.75 361.375 92C361.167 92.2083 360.938 92.4792 360.688 92.8125C360.438 93.1458 360.146 93.4583 359.812 93.75C359.521 94.0833 359.208 94.3542 358.875 94.5625C358.542 94.8125 358.188 94.9375 357.812 94.9375C357.396 94.9375 357.083 94.7083 356.875 94.25C356.667 93.8333 356.5 93.2708 356.375 92.5625C356.292 91.8958 356.25 91.1458 356.25 90.3125C356.25 89.4792 356.25 88.6667 356.25 87.875C356.25 87.2917 356.292 86.6042 356.375 85.8125C356.5 85.0208 356.604 84.2292 356.688 83.4375C356.812 82.6458 356.917 81.9167 357 81.25C357.125 80.5417 357.188 79.9583 357.188 79.5C357.188 78.125 357.083 76.8125 356.875 75.5625C356.708 74.2708 356.5 73.0208 356.25 71.8125C356 70.6042 355.771 69.4375 355.562 68.3125C355.396 67.1875 355.312 66.0833 355.312 65C355.312 64.4583 355.333 63.8542 355.375 63.1875C355.458 62.5208 355.5 61.7708 355.5 60.9375C355.5 60.3542 355.438 59.4792 355.312 58.3125C355.229 57.1458 355.042 56 354.75 54.875C354.5 53.7083 354.146 52.6875 353.688 51.8125C353.229 50.9375 352.646 50.5 351.938 50.5C351.896 50.5 351.729 50.5417 351.438 50.625C351.188 50.7083 351.062 50.8542 351.062 51.0625C351.062 51.1458 351.062 51.25 351.062 51.375C351.104 51.5 351.125 51.6042 351.125 51.6875C351.125 51.8125 351.062 51.875 350.938 51.875C350.854 51.875 350.75 51.875 350.625 51.875C350.5 51.8333 350.396 51.8125 350.312 51.8125C350.188 51.8125 350.062 51.9167 349.938 52.125C349.812 52.3333 349.688 52.5625 349.562 52.8125C349.438 53.0625 349.292 53.3333 349.125 53.625C349 53.875 348.875 54.0625 348.75 54.1875C348.667 54.2708 348.5 54.4375 348.25 54.6875C348.042 54.9375 347.792 55.2083 347.5 55.5C347.25 55.75 346.938 55.9792 346.562 56.1875C346.229 56.3958 345.896 56.5 345.562 56.5C345.271 56.5 344.938 56.375 344.562 56.125C344.229 55.875 344.062 55.4583 344.062 54.875C344.062 54.4583 344.188 54.2083 344.438 54.125C344.729 54.0417 344.938 53.8958 345.062 53.6875C345.354 53.1458 345.625 52.7083 345.875 52.375C346.125 52.0417 346.375 51.75 346.625 51.5C346.875 51.2083 347.125 50.9167 347.375 50.625C347.667 50.3333 347.979 49.9583 348.312 49.5C348.646 49.0833 348.896 48.6667 349.062 48.25C349.271 47.7917 349.5 47.4375 349.75 47.1875C350 46.8958 350.312 46.5833 350.688 46.25C351.062 45.875 351.458 45.5208 351.875 45.1875C352.292 44.8542 352.667 44.5417 353 44.25C353.375 43.9167 353.688 43.6458 353.938 43.4375C354.229 43.1458 354.562 42.8125 354.938 42.4375C355.312 42.0625 355.688 41.7083 356.062 41.375C356.438 41.0417 356.792 40.7708 357.125 40.5625C357.5 40.3125 357.833 40.1875 358.125 40.1875C358.958 40.1875 359.604 40.625 360.062 41.5C360.562 42.3333 360.938 43.3125 361.188 44.4375C361.479 45.5625 361.688 46.7083 361.812 47.875C361.979 49 362.146 49.8542 362.312 50.4375C362.312 50.4792 362.354 50.6667 362.438 51C362.562 51.2917 362.688 51.6458 362.812 52.0625C362.938 52.4792 363.042 52.8958 363.125 53.3125C363.208 53.6875 363.25 53.9792 363.25 54.1875C363.25 54.7708 363.167 55.3125 363 55.8125C362.833 56.2708 362.75 56.6667 362.75 57C362.833 57.5833 363.021 58.1875 363.312 58.8125C363.646 59.3958 363.812 60.1042 363.812 60.9375C363.812 61.0625 363.792 61.1875 363.75 61.3125C363.75 61.3958 363.75 61.5 363.75 61.625H363.688C363.646 61.625 363.542 61.6667 363.375 61.75C363.25 61.7917 363.188 61.8542 363.188 61.9375C363.188 62.0208 363.25 62.1458 363.375 62.3125C363.542 62.4375 363.625 62.5417 363.625 62.625C363.625 62.8333 363.562 63.0417 363.438 63.25C363.312 63.4167 363.25 63.6667 363.25 64C363.292 64.3333 363.438 64.8125 363.688 65.4375C363.938 66.0208 364.104 66.625 364.188 67.25C364.354 68.2917 364.438 69.3542 364.438 70.4375C364.438 71.4792 364.438 72.4167 364.438 73.25C364.438 74.0833 364.5 74.7708 364.625 75.3125C364.75 75.8542 365 76.125 365.375 76.125C365.708 76.125 366.125 75.875 366.625 75.375C367.167 74.8333 367.729 74.1667 368.312 73.375C368.938 72.5417 369.542 71.625 370.125 70.625C370.708 69.625 371.229 68.6458 371.688 67.6875C371.812 67.1458 372 66.6875 372.25 66.3125C372.542 65.8958 372.833 65.5417 373.125 65.25C373.458 64.9583 373.792 64.6875 374.125 64.4375C374.458 64.1458 374.729 63.8333 374.938 63.5C375.104 63.2083 375.188 62.875 375.188 62.5C375.229 62.125 375.292 61.8333 375.375 61.625C375.583 61.125 375.771 60.625 375.938 60.125C376.146 59.625 376.417 59.0417 376.75 58.375C376.833 58.25 377 58.0833 377.25 57.875C377.542 57.6667 377.708 57.5208 377.75 57.4375C377.917 56.9792 378 56.375 378 55.625C378 54.875 378.062 54.2292 378.188 53.6875C378.396 52.8958 378.604 52.2292 378.812 51.6875C379.021 51.1042 379.125 50.6042 379.125 50.1875C379.125 49.4375 379.042 48.6458 378.875 47.8125C378.708 46.9375 378.625 46.125 378.625 45.375C378.625 44.6667 378.771 44.0833 379.062 43.625C379.396 43.1667 379.812 42.75 380.312 42.375C380.812 41.9583 381.354 41.5625 381.938 41.1875C382.562 40.7708 383.167 40.2708 383.75 39.6875C383.917 39.5625 384.042 39.4583 384.125 39.375C384.208 39.2917 384.417 39.25 384.75 39.25C384.708 39.2083 384.688 39.1667 384.688 39.125V38.9375C384.688 38.8125 384.771 38.7292 384.938 38.6875C385.104 38.6458 385.229 38.625 385.312 38.625C385.521 38.625 385.688 38.75 385.812 39C385.979 39.2083 386.104 39.4792 386.188 39.8125C386.271 40.1042 386.333 40.4167 386.375 40.75C386.417 41.0833 386.479 41.3542 386.562 41.5625Z" fill="white"/>
</svg>
